<?xml version="1.0" encoding="UTF-8"?>
<!DOCTYPE svg PUBLIC "-//W3C//DTD SVG 1.1//EN" "http://www.w3.org/Graphics/SVG/1.1/DTD/svg11.dtd">
<!-- Creator: CorelDRAW -->
<svg xmlns="http://www.w3.org/2000/svg" xml:space="preserve" width="6.82666in" height="6.82666in" style="shape-rendering:geometricPrecision; text-rendering:geometricPrecision; image-rendering:optimizeQuality; fill-rule:evenodd; clip-rule:evenodd"
viewBox="0 0 6.82666 6.82666"
 xmlns:xlink="http://www.w3.org/1999/xlink">
 <defs>
  <style type="text/css">
   <![CDATA[
    .fil3 {fill:none}
    .fil2 {fill:#9DD5C0}
    .fil0 {fill:#F19A7B}
    .fil1 {fill:#212121;fill-rule:nonzero}
   ]]>
  </style>
 </defs>
 <g id="Layer_x0020_1">
  <metadata id="CorelCorpID_0Corel-Layer"/>
  <g id="_512204560">
   <path id="_512205664" class="fil0" d="M3.68077 5.09665l0 0zm0.13135 -0.108559c0.00137795,-0.00122047 0.00280709,-0.00240157 0.00427953,-0.00353543 1.5748e-005,-1.5748e-005 3.54331e-005,-2.75591e-005 5.11811e-005,-4.33071e-005l-0.00433071 0.00357874zm-0.159303 0.127587c0.00125591,-0.000700787 0.00252362,-0.00136614 0.00379921,-0.00199213 -0.00125984,0.000688976 -0.00252756,0.00135433 -0.00379921,0.00199213zm-0.0126614 -0.0207795c-0.00108661,0.00258661 -0.00232283,0.00513386 -0.00370472,0.00764173 0.00112992,-0.00256299 0.00236614,-0.00511024 0.00370472,-0.00764173zm0.124008 -0.163358c-0.00160236,0.00232283 -0.0033189,0.00454331 -0.00515354,0.00667717l0.00515354 -0.00667717zm0.589134 -0.762524c-0.00156693,0.00225591 -0.00323228,0.00440945 -0.00500394,0.00647638l0.00500394 -0.00647638zm-0.822516 0.803685l0 0zm1.69883 -1.44391l0 0zm-0.669126 0.180937c-0.0485591,0.0397165 -0.0934606,0.0806299 -0.132469,0.119583 -0.0407756,0.0407205 -0.0751102,0.0792913 -0.100461,0.112102l-0.0598661 0.0774843 -0.0984134 0.127382 -0.497295 0.643657 -0.101709 0.13165 -0.0275669 0.0356772 -0.0119094 0.0154567c-0.0290433,0.0358346 -0.0488898,0.0771575 -0.0575394,0.120197 -0.000531496,0.00264173 -0.00101969,0.00529134 -0.00146457,0.00794488 -0.00693307,0.0412323 -0.00359055,0.0835394 0.0116339,0.123906 0.00787008,0.0218504 0.0251614,0.0400945 0.0487953,0.0483307 0.0415433,0.0145157 0.0844961,0.0167283 0.125823,0.00841339 0.00266929,-0.000535433 0.00533071,-0.00111417 0.00798425,-0.00174016 0.0434646,-0.0102126 0.0847598,-0.0319094 0.120028,-0.0628701l0.0133307 -0.0110118 0.0345197 -0.0285157 0.128394 -0.106059 0.627091 -0.518012 0.12422 -0.10261 0.0681339 -0.0562835c0.0336614,-0.0278031 0.0735827,-0.0657008 0.115583,-0.110646 0.0377992,-0.0404449 0.0772874,-0.0865906 0.115413,-0.13622 0.0489685,-0.0637402 0.0956969,-0.13322 0.133728,-0.203728 0.0761102,-0.141098 0.118988,-0.289465 0.0831142,-0.415016 -0.00758661,-0.026563 -0.028752,-0.0484567 -0.0574724,-0.0556339 -0.125209,-0.031374 -0.271591,0.0157323 -0.409811,0.0954488 -0.0701732,0.0404724 -0.139051,0.0897874 -0.201815,0.141114zm0.0721732 0.146976c-0.00337402,0.00349606 -0.00703937,0.00665354 -0.0109449,0.00944882 0.00361811,-0.00314961 0.00726772,-0.00630315 0.0109449,-0.00944882zm0.222055 0.233646c0.00239764,-0.00349213 0.0050748,-0.00680315 0.00802756,-0.00989764 -0.00267323,0.0033189 -0.00535039,0.00662205 -0.00802756,0.00989764zm-0.299165 0.28363c0.00118504,-0.00103937 0.00240551,-0.00204724 0.00369685,-0.00305512l-0.00369685 0.00305512z"/>
   <path id="_512205928" class="fil0" d="M3.92426 5.38724l-0.0903425 -0.209874 -0.0345197 0.0285157 0.12678 0.199827c0.000484252,-0.00635827 -0.00046063,-0.0125236 -0.00191732,-0.0184685z"/>
   <path id="_512204872" class="fil0" d="M3.33779 4.83643l0.204921 0.120827 0.0275669 -0.0356772 -0.213445 -0.0837402c-0.00620079,-0.00133071 -0.0125827,-0.00212992 -0.0190433,-0.00140945z"/>
   <path id="_512204968" class="fil0" d="M3.66878 3.66576l0.598921 0.35313 0.0598661 -0.0774843c8.66142e-005,-0.000110236 0.000173228,-0.000224409 0.000259843,-0.000334646 0.0278622,-0.0360197 0.062622,-0.0743031 0.100201,-0.111768l-0.568598 -0.223071c-0.0269449,-0.00651575 -0.0562047,-0.0102953 -0.0900984,0.000484252 -0.0280157,0.00891339 -0.060815,0.0269094 -0.100551,0.0590433z"/>
   <path id="_512204752" class="fil0" d="M4.78175 4.39441l-0.0681339 0.0562835 0.371972 0.586303c0.0306339,-0.0406063 0.0474921,-0.0739606 0.0555079,-0.102323 0.00969291,-0.034315 0.00506693,-0.0633031 -0.00225591,-0.0898543l-0.241398 -0.560799c-0.0387362,0.0415276 -0.0779331,0.079185 -0.115543,0.110264 -4.72441e-005,4.33071e-005 -9.84252e-005,8.26772e-005 -0.000149606,0.000125984z"/>
  </g>
  <path class="fil1" d="M1.39722 3.59497c0.0334843,-0.0334843 0.00968504,-0.0910433 -0.0377126,-0.0910433 -0.0141929,0 -0.0276732,0.00557874 -0.0377126,0.0156181l-0.00637008 0.00641339 -0.00632283 0.00644488 -0.00626772 0.00647244 -0.00622835 0.00650787 -0.00617323 0.00654331 -0.00611417 0.00655906 -0.00607087 0.00659843 -0.00602756 0.00663386 -0.00597638 0.00666142 -0.0059252 0.00668898 -0.00587008 0.00671654 -0.0058189 0.00674016 -0.00578346 0.00679134 -0.00572835 0.00681102 -0.00566535 0.00682677 -0.00562205 0.00685827 -0.0055748 0.0068937 -0.00552362 0.00691339 -0.00547638 0.00694488 -0.00543307 0.00698425 -0.00537008 0.007 -0.0053189 0.00701181 -0.00527953 0.00706299 -0.00522835 0.00708268 -0.00446063 0.00612598c-0.0187441,0.0255906 -0.0105236,0.058622 0.0119213,0.0748976 -0.0110551,-0.00694094 -0.0248819,-0.00994094 -0.0397598,-0.00659449 -0.014063,0.00320472 -0.026122,0.0118071 -0.0336654,0.0241063l-0.00193701 0.00317717 -0.00448031 0.00744094 -0.00442913 0.00747244 -0.00437402 0.00748425 -0.00432283 0.00750394 -0.00427559 0.00752756 -0.00422835 0.00755512 -0.00417323 0.00756693 -0.00412598 0.00759055 -0.00407874 0.00761811 -0.00402362 0.00762992 -0.0039685 0.00764173 -0.0039252 0.00766929 -0.00388189 0.00770079 -0.00382677 0.0077126 -0.00377165 0.00772441 -0.00372441 0.00774016 -0.00367717 0.00777165 -0.00362598 0.0077874 -0.00357087 0.00779528 -0.00352362 0.00781496 -0.00347638 0.00783465 -0.00342913 0.00785827 -0.00337008 0.0078622 -0.00332677 0.00788189 -0.00327953 0.00792126 -0.00106299 0.00261811c-0.00751575,0.0184449 -0.00431496,0.038815 0.0082126,0.0542323 0.00607874,0.00722441 0.0133858,0.0123583 0.0212205,0.0155118 -0.0267598,-0.00867717 -0.057689,0.00506299 -0.067252,0.0344606l-0.00170472 0.00537402 -0.00252362 0.0081063 -0.00247638 0.0081378 -0.0024252 0.00814961 -0.00237402 0.00814567 -0.00232283 0.00815748 -0.00227559 0.00818504 -0.00222047 0.0081811 -0.00217717 0.00819291 -0.00212598 0.0082126 -0.0020748 0.00822441 -0.00201969 0.00822835 -0.00197638 0.00823622 -0.0019252 0.00825197 -0.00187008 0.00825197 -0.00182677 0.00827165 -0.00177165 0.00827165 -0.00172441 0.00827559 -0.00167717 0.00830315 -0.00162205 0.00829134 -0.0015748 0.00831496 -0.00152362 0.00832283 -0.00147244 0.00831496 -0.0014252 0.00832677 -0.00137008 0.00833465 -0.00132677 0.00835039 -0.000637795 0.00419291c-0.00280709,0.0187953 0.00406693,0.0369921 0.0186063,0.0492244 0.0079252,0.00653937 0.0168386,0.0103346 0.0258701,0.0117244 -0.0111299,-0.00080315 -0.0228268,0.00190945 -0.0335827,0.00902756 -0.0135906,0.00933071 -0.0219921,0.0236142 -0.023315,0.0400787l-0.000232283 0.00311417 -0.000574803 0.00840945 -0.000527559 0.00840945 -0.000472441 0.00843701 -0.00042126 0.00841732 -0.000377953 0.00841732 -0.000322835 0.00842126 -0.000275591 0.00841732 -0.000228346 0.00844882 -0.000169291 0.00842126 -0.000129921 0.0084252 -7.08661e-005 0.00843307 -2.75591e-005 0.0084252 2.75591e-005 0.0084252 7.08661e-005 0.00843701 0.000129921 0.00842126 0.000169291 0.0084252 0.000228346 0.00844488 0.000275591 0.00842126 0.000322835 0.00841732 0.000377953 0.00841732 0.00042126 0.00841732 0.000472441 0.00843701 0.000527559 0.00840945 0.000574803 0.00840945 0.000625984 0.00841732 0.000610236 0.00764173c0.00172047,0.0214016 0.015689,0.0393622 0.0359606,0.046378 0.00738976,0.00246457 0.0147835,0.00327165 0.0218465,0.00266535 -0.0135512,0.00200787 -0.0265512,0.00925984 -0.0356693,0.0225394 -0.00778346,0.0113386 -0.0108425,0.0251024 -0.00865748,0.0386772l0.00127165 0.00772835 0.0014252 0.00832677 0.00147244 0.00831496 0.00152362 0.00832283 0.0015748 0.0083189 0.00162205 0.00829134 0.00167717 0.00829921 0.00172441 0.00827953 0.00177165 0.00826772 0.00182677 0.00827559 0.00187008 0.00825197 0.0019252 0.00825591 0.00197638 0.00823228 0.00201969 0.00822441 0.0020748 0.00822441 0.00212598 0.00820866 0.00217717 0.00820079 0.00222047 0.0081811 0.00227559 0.0081811 0.00232283 0.00815354 0.00237402 0.00815354 0.0024252 0.00814961 0.00247638 0.00812992 0.00252362 0.00811417 0.0025748 0.00810236 0.00261811 0.00808268 0.000606299 0.00183858c0.0100748,0.0298622 0.041311,0.043063 0.0680157,0.0338386 -0.0261378,0.010622 -0.0412638,0.0412992 -0.0292008,0.0700315l0.00257874 0.00610236 0.00337008 0.00786614 0.00343307 0.00785827 0.00347244 0.00783071 0.00351969 0.00781102 0.00357087 0.00779921 0.00362992 0.00779134 0.00367717 0.00777165 0.00372441 0.00774016 0.00377165 0.00772441 0.00382677 0.00771654 0.00388189 0.00769291 0.00392126 0.00766535 0.00397244 0.00764961 0.00402362 0.00762992 0.00407874 0.00761811 0.00412992 0.00759449 0.00417323 0.00756693 0.00422047 0.00754331 0.00427559 0.0075315 0.00432677 0.00750787 0.00437402 0.00748425 0.00442913 0.00747244 0.00448031 0.00744094 0.00451969 0.00740945 0.00422047 0.00682677c0.0168622,0.0274961 0.0511614,0.031815 0.0746299,0.0167874 -0.0234213,0.0165512 -0.0306732,0.0499016 -0.0122638,0.0750354l0.00202362 0.00273622 0.00527953 0.00706299 0.0053189 0.00701181 0.00537402 0.00700394 0.00542913 0.00697638 0.00547244 0.00694094 0.00552756 0.00692126 0.0055748 0.0068937 0.00562205 0.00685827 0.00566535 0.00682677 0.00573228 0.0068189 0.00577953 0.00677953 0.00581496 0.00673622 0.00587402 0.00672441 0.00592913 0.00669291 0.00597638 0.00666142 0.00601575 0.00662205 0.0060748 0.00659843 0.00611811 0.00656693 0.00617323 0.00654331 0.00622835 0.00650787 0.00626772 0.00647244 0.00632283 0.00644488 0.00637008 0.00641339 7.87402e-006 3.93701e-006 0.00640945 0.00636614 0.00305512 0.00299606c0.0220394,0.0213386 0.0558307,0.020126 0.076185,-0.00132283 -0.0184803,0.0213031 -0.0179685,0.0554606 0.00583071,0.0757087l0.00109843 0.000925197 0.00682677 0.00566535 0.00685827 0.00562205 0.0068937 0.0055748 0.00691339 0.00552362 0.00694488 0.00547638 0.00698425 0.00543307 0.007 0.00537008 0.00701181 0.0053189 0.00706299 0.00527953 0.00708268 0.00522835 0.0071063 0.00517717 0.00712598 0.00512205 0.00716142 0.0050748 0.00717323 0.00502362 0.00720472 0.00497244 0.00723228 0.00492913 0.00726378 0.00488189 0.00727559 0.00482283 0.00730315 0.00477559 0.00733071 0.00472835 0.00734252 0.00466929 0.00738583 0.00463386 0.00740157 0.0045748 0.00740551 0.00451575 0.00744094 0.00448031 0.00105118 0.000622047c0.0175472,0.0105276 0.0400591,0.0100197 0.0570354,-0.00146457 0.00687402,-0.00464961 0.0122323,-0.0104764 0.0161024,-0.0169488 -0.00437008,0.00880709 -0.00637008,0.0190709 -0.00500787,0.0300945 0.00242913,0.017874 0.0128622,0.0330157 0.0290787,0.041126l0.000413386 0.000204724 0.00772441 0.00377165 0.00774016 0.00372441 0.00777165 0.00367717 0.0077874 0.00362598 0.00779528 0.00357087 0.00781496 0.00352362 0.00783465 0.00347638 0.00785827 0.00342913 0.0078622 0.00337008 0.00788189 0.00332677 0.00792126 0.00327953 0.00791339 0.00322047 0.0079252 0.00317323 0.00794882 0.00312205 0.00797244 0.00308268 0.00798819 0.00302362 0.00797638 0.0029685 0.00801969 0.00292913 0.00802756 0.00287402 0.0080315 0.00282283 0.00805118 0.00277165 0.00806693 0.00272835 0.00808661 0.00267717 0.00808268 0.00261811 0.00810236 0.0025748 0.0073189 0.00227559c0.0308898,0.00956299 0.0589449,-0.00930315 0.0670748,-0.0354606 -0.00298031,0.0126299 -0.0013937,0.0266339 0.00644094,0.039689 0.00776378,0.0124567 0.0195079,0.0210787 0.0338937,0.0242953l0.00820472 0.00181496 0.00827165 0.00177165 0.00827953 0.00172441 0.00830315 0.00167717 0.00829134 0.00162205 0.00831496 0.0015748 0.00832283 0.00152362 0.00831496 0.00147244 0.00832677 0.0014252 0.00833465 0.00137008 0.00835039 0.00132677 0.00834252 0.00127165 0.00835039 0.00122835 0.00837008 0.00117323 0.00837402 0.00112598 0.00837795 0.0010748 0.0083622 0.00101969 0.00837795 0.000976378 0.00840551 0.000929134 0.00838583 0.000870079 0.0083937 0.000822835 0.00840551 0.000775591 0.00840157 0.000724409 0.00839764 0.000673228 0.00841732 0.000625984 0.00840945 0.000574803 0.00205906 0.000125984c0.0232441,0.00133465 0.0439803,-0.0116654 0.0529134,-0.0331575 0.00226378,-0.00561811 0.00350394,-0.0113268 0.00383465,-0.0169488 0.000267717,0.0281142 0.0230315,0.0532087 0.0539685,0.0528583l0.0051811 -8.26772e-005 0.00842126 -0.000169291 0.00844882 -0.000228346 0.00842126 -0.000275591 0.00841732 -0.000322835 0.00841732 -0.000377953 0.00841732 -0.00042126 0.00843701 -0.000472441 0.00840945 -0.000527559 0.00840945 -0.000574803 0.00841732 -0.000625984 0.00839764 -0.000673228 0.00840157 -0.000724409 0.00840551 -0.000775591 0.0083937 -0.000822835 0.00838583 -0.000870079 0.00840551 -0.000929134 0.00837795 -0.000976378 0.0083622 -0.00101969 0.00837795 -0.0010748 0.00837402 -0.00112598 0.00837008 -0.00117323 0.00835039 -0.00122835 0.00834252 -0.00127165 0.00835039 -0.00132677 0.00833465 -0.00137008 0.00537795 -0.000917323c0.0301654,-0.00526378 0.048937,-0.0335118 0.0435669,-0.0623937 0.00265354,0.0115276 0.00923228,0.0223976 0.0201732,0.0304764 0.0128307,0.00952756 0.029126,0.0127205 0.044626,0.00888976l0.00214173 -0.00053937 0.0082126 -0.00212598 0.00819291 -0.00217717 0.0081811 -0.00222047 0.00818504 -0.00227559 0.00815748 -0.00232283 0.00814567 -0.00237402 0.00814961 -0.0024252 0.00813386 -0.00247638 0.00811417 -0.00252362 0.00810236 -0.0025748 0.00808268 -0.00261811 0.00808661 -0.00267717 0.00806693 -0.00272835 0.00805118 -0.00277165 0.0080315 -0.00282283 0.00802756 -0.00287402 0.00801969 -0.00292913 0.00797638 -0.0029685 0.00798819 -0.00302362 0.00797244 -0.00308268 0.00794882 -0.00312205 0.0079252 -0.00317323 0.00791339 -0.00322047 0.00792126 -0.00327953 0.00788189 -0.00332677 0.00613386 -0.00262992c0.0189764,-0.00820079 0.0311417,-0.0256969 0.0323976,-0.0462953 0.000429134,-0.0087874 -0.00120866,-0.0169843 -0.00440551,-0.0242559 0.0015,0.00287795 0.00328346,0.0056811 0.00536614,0.00836614 0.0162835,0.0202756 0.0434921,0.0261614 0.0666654,0.0142795l0.00238583 -0.00125984 0.00761024 -0.0040748 0.00760236 -0.00412992 0.00757087 -0.00417717 0.00754724 -0.00422441 0.00752756 -0.00427559 0.00750394 -0.00432283 0.00748425 -0.00437402 0.00747244 -0.00442913 0.00744094 -0.00448031 0.00740551 -0.00451575 0.00740157 -0.0045748 0.00738583 -0.00463386 0.00734252 -0.00466929 0.00733071 -0.00472835 0.00730315 -0.00477559 0.00727559 -0.00482283 0.00726378 -0.00488189 0.00723228 -0.00492913 0.00720472 -0.00497244 0.00717323 -0.00502362 0.00716142 -0.0050748 0.00712598 -0.00512205 0.0071063 -0.00517717 0.00708268 -0.00522835 0.00706299 -0.00527953 0.00115748 -0.000877953c0.0243701,-0.0184488 0.0274724,-0.0519606 0.0107244,-0.0744646 0.00825197,0.00934252 0.0199646,0.0159409 0.0343701,0.0173661 0.014811,0.00146457 0.0293583,-0.00318898 0.0405472,-0.0130236l0.00238189 -0.00211024 0.00666142 -0.00597638 0.00663386 -0.00602756 0.00659843 -0.00607087 0.00655906 -0.00611417 0.00654331 -0.00617323 0.00650787 -0.00622835 0.00647244 -0.00626772 0.00644488 -0.00632283 0.00641339 -0.00637008c0.0334843,-0.0334843 0.00968504,-0.0910433 -0.0377126,-0.0910433 -0.0141929,0 -0.0276732,0.00557874 -0.0377126,0.0156181l-0.0059252 0.00588976 -0.00595669 0.00584252 -0.00599213 0.00580315 -0.00601181 0.00574803 -0.00603937 0.00570079 -0.00607874 0.00566535 -0.00609449 0.00561417 -0.00612205 0.00556299 -0.00615748 0.00551969 -0.00187008 0.00165354c-0.0227165,0.0199646 -0.022748,0.0515197 -0.00721654,0.0723386 -0.00361024,-0.00409055 -0.00794882,-0.00772441 -0.0130079,-0.0107165 -0.0190315,-0.0108386 -0.0414882,-0.00972835 -0.0591339,0.00338189l-0.00115748 0.000877953 -0.00650394 0.00487008 -0.0065315 0.0048189 -0.00656299 0.00477559 -0.00659055 0.00473622 -0.00660236 0.00468898 -0.0066378 0.0046378 -0.00665354 0.00460236 -0.00667323 0.00454331 -0.00668898 0.00449606 -0.00672441 0.00445276 -0.00674409 0.00441339 -0.00676378 0.00435827 -0.00679134 0.00432283 -0.00679528 0.00426378 -0.00682677 0.00422047 -0.0068622 0.00418504 -0.00687402 0.00413386 -0.00688189 0.00408268 -0.00690945 0.00403543 -0.00693701 0.004 -0.00694488 0.00394488 -0.00697244 0.00390157 -0.00698819 0.00385433 -0.00700394 0.00380709 -0.00702756 0.00375984 -0.00180315 0.000952756c-0.0255354,0.0135945 -0.0351299,0.0436614 -0.0240906,0.0686969 -0.0122165,-0.0233819 -0.0411417,-0.035811 -0.0682165,-0.0244449l-0.00613386 0.00262992 -0.00729134 0.0030748 -0.00727559 0.00301969 -0.00732283 0.00297638 -0.00733465 0.00293701 -0.00734252 0.00288583 -0.00735039 0.00283858 -0.00736614 0.0027874 -0.00740157 0.00275591 -0.00738976 0.00270079 -0.00741339 0.00265354 -0.0074252 0.00261024 -0.00744488 0.00256693 -0.00744488 0.00251575 -0.00745669 0.00246457 -0.00748425 0.00242913 -0.00748819 0.00237795 -0.00750787 0.00233465 -0.00750394 0.0022874 -0.00751969 0.00223622 -0.00753937 0.00219291 -0.00755118 0.00214961 -0.00754724 0.00210236 -0.0075748 0.00205512 -0.00757874 0.00201181 -0.00758268 0.00196063 -0.00150394 0.00038189c-0.0295748,0.00730709 -0.0443268,0.0359606 -0.0394685,0.0619724 -0.000507874,-0.00222441 -0.00115748,-0.00445276 -0.00196063,-0.00666929 -0.00914173,-0.0240709 -0.0333858,-0.0381102 -0.0588189,-0.0339685l-0.00537795 0.000917323 -0.0077126 0.00127559 -0.0077126 0.00122441 -0.00772835 0.00117717 -0.00772835 0.00113386 -0.00772441 0.00108661 -0.00773622 0.00103937 -0.00773228 0.000988189 -0.00776378 0.000948819 -0.00776378 0.000905512 -0.00773622 0.000850394 -0.00776378 0.000807087 -0.00777165 0.000767717 -0.00775984 0.000712598 -0.00777953 0.000669291 -0.00778346 0.000625984 -0.00777165 0.00057874 -0.0077874 0.000527559 -0.0077874 0.000488189 -0.00776772 0.000440945 -0.00779528 0.000389764 -0.00779528 0.000346457 -0.00779528 0.000299213 -0.00779921 0.000259843 -0.00777953 0.000204724 -0.00779921 0.000161417 -0.00455906 6.69291e-005c-0.0204803,0.000232283 -0.0393701,0.012378 -0.0478465,0.0310748 -0.00284252,0.00627165 -0.00437402,0.012689 -0.00475984,0.0190039 -0.000307087,-0.0267323 -0.0209567,-0.0506142 -0.0498819,-0.0526102l-0.00205906 -0.000125984 -0.0077874 -0.000527559 -0.00777165 -0.00057874 -0.00778346 -0.000625984 -0.00777953 -0.000669291 -0.00775984 -0.000712598 -0.00777165 -0.000767717 -0.00776378 -0.000807087 -0.00773622 -0.000850394 -0.00776378 -0.000905512 -0.00776378 -0.000948819 -0.00773228 -0.000988189 -0.00773622 -0.00103937 -0.00772441 -0.00108661 -0.00772835 -0.00113386 -0.00772835 -0.00117717 -0.0077126 -0.00122441 -0.0077126 -0.00127559 -0.00770472 -0.00131496 -0.00770079 -0.0013622 -0.00768504 -0.00140551 -0.00766929 -0.00145669 -0.00768504 -0.00150394 -0.00765748 -0.00154331 -0.00766535 -0.00159843 -0.00764961 -0.0016378 -0.0075748 -0.00167323c-0.0296535,-0.00655118 -0.0550197,0.0118425 -0.0626732,0.0365945 0.00286614,-0.0121063 0.00150787,-0.0255118 -0.00567717,-0.0382638 -0.00706693,-0.012063 -0.0170591,-0.0201929 -0.030374,-0.0245236l-0.0073189 -0.00227559 -0.00748819 -0.00237795 -0.00748425 -0.00242913 -0.00745669 -0.00246457 -0.00744488 -0.00251575 -0.00744488 -0.00256693 -0.0074252 -0.00261024 -0.00741339 -0.00265354 -0.00738976 -0.00270079 -0.00740157 -0.00275591 -0.00736614 -0.0027874 -0.00735039 -0.00283858 -0.00734252 -0.00288583 -0.00733465 -0.00293701 -0.00732283 -0.00297638 -0.00727559 -0.00301969 -0.00729134 -0.0030748 -0.00727165 -0.00311811 -0.00725197 -0.00316142 -0.00723622 -0.00320866 -0.00722441 -0.00325591 -0.00720472 -0.00330315 -0.0071811 -0.00334252 -0.00716535 -0.0033937 -0.00715748 -0.00344094 -0.00714173 -0.00348819 0.000185039 9.44882e-005c-0.0266535,-0.0133268 -0.056252,-0.00201575 -0.0697559,0.0204921 0.0116969,-0.023685 0.00470866,-0.054378 -0.0204528,-0.0694724l-0.00105118 -0.000622047 -0.00687402 -0.00413386 -0.0068622 -0.00418504 -0.00682677 -0.00422047 -0.00679528 -0.00426378 -0.00679134 -0.00432283 -0.00676378 -0.00435827 -0.00674409 -0.00441339 -0.00672441 -0.00445276 -0.00668898 -0.00449606 -0.00667323 -0.00454331 -0.00665354 -0.00460236 -0.0066378 -0.0046378 -0.00660236 -0.00468898 -0.00659055 -0.00473622 -0.00656299 -0.00477559 -0.0065315 -0.0048189 -0.00650394 -0.00487008 -0.0065 -0.0049252 -0.00646457 -0.00496063 -0.00643307 -0.00500787 -0.00640945 -0.00505118 -0.0063937 -0.0051063 -0.00636614 -0.00514961 -0.00633858 -0.00519685 -0.00632283 -0.00524803 -0.000570866 -0.000476378c-0.0154055,-0.012878 -0.0357677,-0.0161181 -0.0544252,-0.00875197 -0.00744094,0.00303543 -0.0137047,0.0074252 -0.0187244,0.0127126 0.00122441,-0.00140551 0.0023937,-0.00288189 0.0035,-0.00444094 0.0147953,-0.0215748 0.0121693,-0.0498898 -0.00633465,-0.0683937l-0.00305512 -0.00299606 -0.0056811 -0.00564173 -3.14961e-005 -3.54331e-005 -3.54331e-005 -3.54331e-005 -3.54331e-005 -3.54331e-005 -3.54331e-005 -3.54331e-005 -3.54331e-005 -3.54331e-005 -3.54331e-005 -3.54331e-005 -3.54331e-005 -3.54331e-005 -3.93701e-006 0 -3.93701e-006 -3.93701e-006 -0.000251969 -0.000255906 -8.26772e-005 -8.26772e-005 -0.00555118 -0.00558268 -0.00584252 -0.00595669 -0.00580315 -0.00599213 -0.00574803 -0.00601181 -0.00570079 -0.00603937 -0.00566142 -0.00607087 -0.00561024 -0.00610236 -0.0055748 -0.00613386 -0.00551969 -0.00614961 -0.00546457 -0.00617323 -0.0054252 -0.00620472 -0.00538976 -0.00624803 -0.00533071 -0.00625197 -0.00527559 -0.00627559 -0.00524803 -0.00632283 -0.00519685 -0.00633858 -0.00514961 -0.00636614 -0.00510236 -0.00638583 -0.00505512 -0.00642126 -0.00501181 -0.00643307 -0.00495669 -0.00646063 -0.0049252 -0.0065 -0.00487008 -0.00650394 -0.00161417 -0.00218504c-0.0131457,-0.0176929 -0.0345748,-0.0252992 -0.0559567,-0.0202205 -0.00574016,0.00150787 -0.0109646,0.00382283 -0.0156142,0.00677953 0.00914961,-0.00652756 0.0164055,-0.0161654 0.0199291,-0.0286614 0.00407087,-0.014437 0.00199213,-0.0296772 -0.00585827,-0.0424764l-0.00422047 -0.00682677 -0.0041811 -0.00685827 -0.00413386 -0.00687402 -0.00408268 -0.00688189 -0.00403543 -0.00690945 -0.00399606 -0.00693307 -0.00394488 -0.00694882 -0.00390551 -0.00697638 -0.00385827 -0.00699213 -0.00380709 -0.00700394 -0.00375591 -0.00701969 -0.00371654 -0.00704724 -0.00367323 -0.00706693 -0.00362992 -0.00709055 -0.0035748 -0.00709449 -0.00352756 -0.00711024 -0.00348819 -0.00714173 -0.00344094 -0.00715748 -0.0033937 -0.00716535 -0.00333858 -0.00717717 -0.00330315 -0.00720866 -0.00325984 -0.00722835 -0.0032126 -0.00724016 -0.00315748 -0.00724409 -0.00311811 -0.00727559 -0.00232677 -0.00551181c-0.00785039,-0.0187047 -0.0250039,-0.0308701 -0.0451299,-0.0326102 -0.00762598,-0.000559055 -0.0148543,0.000472441 -0.0214528,0.00275197 0.00676378,-0.00274409 0.0131772,-0.00697638 0.0187992,-0.0127953 0.0134528,-0.0144134 0.0180394,-0.0344724 0.0119291,-0.0532559l-0.000606299 -0.00183858 -0.00242913 -0.00748425 -0.00237795 -0.00748819 -0.00233465 -0.00750787 -0.0022874 -0.00750787 -0.00223622 -0.00751181 -0.00219291 -0.00753937 -0.00214961 -0.00755512 -0.00210236 -0.00755118 -0.00205512 -0.00756693 -0.00201181 -0.00757874 -0.00196063 -0.00758661 -0.00191732 -0.00758661 -0.00187008 -0.00761024 -0.00182677 -0.00761811 -0.00177559 -0.00761811 -0.00173622 -0.0076378 -0.00168504 -0.0076378 -0.0016378 -0.00765354 -0.00159843 -0.00766535 -0.00154331 -0.00766142 -0.00150394 -0.00767717 -0.00145669 -0.00767323 -0.00140551 -0.00768504 -0.0013622 -0.00770079 -0.00131496 -0.00770472 -0.00117717 -0.00711417c-0.00491339,-0.0301969 -0.0317992,-0.0467677 -0.057685,-0.0445551 0.0263425,-0.0039252 0.0472874,-0.0274764 0.0452598,-0.0568858l-0.000610236 -0.00764173 -0.00057874 -0.00777165 -0.000527559 -0.0077874 -0.000488189 -0.0077874 -0.000440945 -0.00776772 -0.000389764 -0.00779528 -0.000346457 -0.00779528 -0.000299213 -0.00779528 -0.000259843 -0.00779921 -0.000204724 -0.00777559 -0.000161417 -0.00780315 -0.000114173 -0.00779921 -7.08661e-005 -0.00779134 -1.9685e-005 -0.00780315 1.9685e-005 -0.00780315 7.08661e-005 -0.0077874 0.000114173 -0.00780315 0.000161417 -0.00779921 0.000204724 -0.00777953 0.000259843 -0.00779528 0.000299213 -0.00779921 0.000346457 -0.00779528 0.000389764 -0.00779528 0.000440945 -0.00776772 0.000488189 -0.0077874 0.000527559 -0.0077874 0.000185039 -0.0024685c0.00207874,-0.0301614 -0.0194764,-0.0528976 -0.0452047,-0.0568622 0.0260827,0.0018622 0.0519764,-0.0158386 0.0566732,-0.0450197l0.000637795 -0.00419291 0.00122441 -0.0077126 0.00127559 -0.0077126 0.00131496 -0.00770472 0.0013622 -0.00770079 0.00140551 -0.00768504 0.00145669 -0.00766929 0.00150394 -0.00768504 0.00154331 -0.00765748 0.00159843 -0.00766142 0.0016378 -0.00765748 0.00168504 -0.00763386 0.00173622 -0.0076378 0.00177559 -0.00762205 0.00182677 -0.00762205 0.00187008 -0.0076063 0.00191732 -0.00758661 0.00196063 -0.00758268 0.00201181 -0.00757874 0.00205512 -0.0075748 0.00210236 -0.00754724 0.00214961 -0.00755118 0.00219291 -0.00753937 0.00223622 -0.00751969 0.0022874 -0.0075 0.00233465 -0.00750787 0.00151575 -0.00476772c0.00625197,-0.0199646 0.00076378,-0.0411535 -0.0145512,-0.0554488 -0.00498819,-0.00457874 -0.0104961,-0.00799213 -0.0162559,-0.0103268 0.0250512,0.00809055 0.0542638,-0.00319291 0.0657283,-0.0305079l0.00106299 -0.00261811 0.00301969 -0.00727559 0.0030748 -0.00729134 0.00311811 -0.00727165 0.00316142 -0.00725197 0.00320866 -0.00723622 0.00325591 -0.00722441 0.00330315 -0.00720472 0.00334252 -0.0071811 0.0033937 -0.00716535 0.00344094 -0.00715748 0.00348819 -0.00714173 0.00352756 -0.00711417 0.0035748 -0.00709449 0.00362598 -0.00707874 0.00367717 -0.0070748 0.00371654 -0.00704724 0.00375591 -0.00701969 0.00381102 -0.00700787 0.00385827 -0.007 0.00389764 -0.00696457 0.00394488 -0.00694488 0.004 -0.00693701 0.00403543 -0.00690945 0.00408268 -0.00688189 0.00413386 -0.00687402 0.0016063 -0.00263386c0.0159173,-0.0259528 0.00651969,-0.0560827 -0.0145354,-0.0713386 0.00834252,0.00522835 0.0183898,0.00823622 0.0295827,0.00796457 0.0168071,-0.000622047 0.0315315,-0.00825197 0.0415827,-0.0217835l0.00446063 -0.00612598 0.0048189 -0.0065315 0.00487008 -0.00650394 0.0049252 -0.0065 0.00496063 -0.00646457 0.00500787 -0.00643307 0.00505118 -0.00640945 0.0051063 -0.0063937 0.00514961 -0.00636614 0.00519685 -0.00633858 0.00524803 -0.00632283 0.00527953 -0.00628346 0.00532677 -0.00624803 0.00538583 -0.00623622 0.00542913 -0.0062126 0.0054685 -0.00617717 0.00551969 -0.00615748 0.00556299 -0.00612205 0.00561417 -0.00609449 0.00566535 -0.00607874 0.00570079 -0.00603937 0.00574803 -0.00601181 0.00580315 -0.00599213 0.00584252 -0.00595669 0.00588976 -0.0059252zm2.12232 -2.27318c-0.0334843,0.0334843 -0.00968504,0.0910433 0.0377126,0.0910433 0.0141929,0 0.0276732,-0.00557874 0.0377126,-0.0156181l0.0059252 -0.00588976 0.00595669 -0.00584252 0.00599213 -0.00580315 0.00601181 -0.00574803 0.00603937 -0.00570079 0.00607874 -0.00566535 0.00609449 -0.00561417 0.00612205 -0.00556299 0.00615748 -0.00551969 0.00187008 -0.00165354c0.0227323,-0.0199764 0.022752,-0.051563 0.00718504,-0.0723819 0.00361417,0.0041063 0.0079685,0.00775197 0.0130433,0.0107559 0.0190315,0.0108386 0.0414882,0.00972835 0.0591339,-0.00338189l0.00115354 -0.000874016 0.00650394 -0.00487008 0.0065315 -0.0048189 0.00656299 -0.00477559 0.00659055 -0.00473622 0.00660236 -0.00468898 0.0066378 -0.0046378 0.00665354 -0.00460236 0.00667323 -0.00454331 0.00668898 -0.00449606 0.00672441 -0.00445276 0.00674409 -0.00441339 0.00676378 -0.00435827 0.00677953 -0.00431496 0.00680709 -0.00426772 0.00683465 -0.00422835 0.00685433 -0.0041811 0.00686614 -0.00412992 0.00688976 -0.00408268 0.00691732 -0.00404724 0.00692913 -0.00399213 0.00694488 -0.00394488 0.00696457 -0.00389764 0.00698819 -0.00385433 0.00701969 -0.00381102 0.00702756 -0.00376378 0.00179528 -0.000948819c0.0254173,-0.0135354 0.0350433,-0.0433898 0.0242402,-0.0683543 0.00561417,0.0107717 0.0151024,0.0198583 0.0284291,0.0249449 0.0130984,0.00482677 0.0267402,0.00457087 0.039626,-0.000838583l0.00613386 -0.00262992 0.00729134 -0.00307087 0.00729921 -0.00302756 0.0073189 -0.00298031 0.00732677 -0.00293307 0.00733465 -0.00288189 0.00735827 -0.00283858 0.00737795 -0.00279921 0.00737795 -0.00274409 0.00740157 -0.00270079 0.00742126 -0.00266142 0.00742126 -0.0026063 0.00743701 -0.00256299 0.00744882 -0.00251575 0.0074685 -0.00247244 0.0074685 -0.00242126 0.00749606 -0.00238189 0.00749606 -0.00233071 0.00751181 -0.0022874 0.0075315 -0.00224409 0.00752756 -0.00218898 0.00755118 -0.00214961 0.00754724 -0.00210236 0.00756299 -0.00205118 0.00757874 -0.00201181 0.00759055 -0.00196063 0.00151969 -0.000385827c0.0294685,-0.00727953 0.0444449,-0.0359016 0.039437,-0.0620591 0.000511811,0.00225591 0.00116535,0.00451181 0.00198031,0.00675591 0.00914173,0.0240709 0.0333858,0.0381102 0.0588189,0.0339685l0.00538189 -0.000917323 0.0077126 -0.00127559 0.00770866 -0.00122441 0.00771654 -0.00117323 0.00772835 -0.00113386 0.00773622 -0.00108661 0.00774409 -0.00103937 0.00774016 -0.000996063 0.00774016 -0.000944882 0.00775984 -0.000897638 0.00775984 -0.000858268 0.00775591 -0.000807087 0.00776772 -0.00076378 0.00777559 -0.000716535 0.00776772 -0.000669291 0.00776378 -0.000625984 0.00779134 -0.000574803 0.00778346 -0.000531496 0.00777953 -0.000484252 0.00779134 -0.000440945 0.00779134 -0.000393701 0.00778346 -0.000346457 0.0077874 -0.000299213 0.00779921 -0.000251969 0.00779921 -0.000208661 0.0077874 -0.000165354 0.00455906 -6.69291e-005c0.0204803,-0.000232283 0.0393701,-0.012378 0.0478465,-0.0310748 0.00285433,-0.00629528 0.00438583,-0.0127402 0.00476378,-0.0190827 0.000267717,0.0267598 0.0209291,0.0506929 0.0498819,0.052689l0.00205906 0.000125984 0.00778346 0.000531496 0.00779134 0.000574803 0.00776378 0.000625984 0.00776772 0.000669291 0.00777559 0.000716535 0.00776772 0.00076378 0.00775591 0.000807087 0.00775984 0.000858268 0.00774803 0.000897638 0.00775197 0.000948819 0.00775197 0.000992126 0.00773228 0.00103937 0.00773622 0.00108661 0.00771654 0.00112992 0.00772835 0.0011811 0.00772047 0.00122441 0.00770079 0.00127165 0.00770079 0.00131496 0.00769685 0.00136614 0.00769291 0.00140551 0.00767717 0.00145669 0.0076811 0.00150394 0.00766929 0.00154724 0.00764961 0.00159055 0.00764567 0.00164173 0.00757874 0.00167323c0.0296772,0.00655512 0.055063,-0.011874 0.0626929,-0.0366575 -0.00288583,0.012126 -0.00153543,0.0255551 0.00566142,0.0383268 0.00706693,0.012063 0.0170591,0.0201929 0.030374,0.0245236l0.00731496 0.00227559 0.00749606 0.00238189 0.00748031 0.0024252 0.00745669 0.00246457 0.00744094 0.00251575 0.00744488 0.00256693 0.00743307 0.00261024 0.00740945 0.00265354 0.00740157 0.00270472 0.00738976 0.00274803 0.00736614 0.00279134 0.00735039 0.00283465 0.00734252 0.00288976 0.00733465 0.00293307 0.00731102 0.00297638 0.00729921 0.00302756 0.00727953 0.00306693 0.00725591 0.00311417 0.00727165 0.00317323 0.00724409 0.00320866 0.00719685 0.00324409 0.0072126 0.00330709 0.00718898 0.00334646 0.00716535 0.0033937 0.00715748 0.00344094 0.00695276 0.0033937 0.000188976 9.44882e-005c0.026811,0.0132795 0.0565512,0.00168898 0.069874,-0.0211102 -0.0121772,0.0239094 -0.00511024,0.0548425 0.0201535,0.07l0.00105512 0.000622047 0.00686614 0.00412598 0.00685433 0.00418504 0.00683465 0.00422441 0.00679528 0.00426378 0.00679134 0.00432283 0.00676378 0.00435827 0.00674409 0.00441339 0.00672441 0.00445276 0.00668898 0.00449606 0.00667323 0.00454331 0.00665354 0.00460236 0.0066378 0.0046378 0.00660236 0.00468898 0.00659055 0.00473622 0.00656299 0.00477559 0.0065315 0.0048189 0.00651181 0.00487402 0.00649213 0.00491732 0.00645669 0.00496063 0.00644094 0.00501181 0.00640945 0.00505118 0.0063937 0.0051063 0.00636614 0.00514961 0.00633858 0.00519685 0.00632283 0.00524803 0.000570866 0.000476378c0.0154055,0.012878 0.0357677,0.0161181 0.0544252,0.00875197 0.0074252,-0.00302756 0.0136772,-0.00740551 0.0186929,-0.0126772 -0.0012126,0.0013937 -0.00237008,0.00285827 -0.0034685,0.00440157 -0.0147953,0.0215748 -0.0121693,0.0498898 0.00633465,0.0683937l0.00305512 0.003 0.0059252 0.00588976 3.93701e-006 3.93701e-006 0.00588976 0.0059252 0.00584252 0.00595669 0.00580315 0.00599213 0.00574803 0.00601181 0.00570079 0.00603937 0.00566535 0.00607874 0.00561417 0.00609449 0.00556299 0.00612205 0.00551969 0.00615748 0.0054685 0.00617717 0.00542913 0.0062126 0.00538583 0.00623622 0.00532677 0.00624803 0.00527953 0.00628346 0.00524803 0.00632283 0.00519685 0.00633858 0.00514961 0.00636614 0.0051063 0.0063937 0.00505118 0.00640945 0.00500787 0.00643307 0.00496063 0.00646457 0.0049252 0.0065 0.00487008 0.00650394 0.00161024 0.00218504c0.0131457,0.0176929 0.0345748,0.0252992 0.0559567,0.0202205 0.0367638,-0.00964961 0.0525472,-0.0525906 0.0300669,-0.0832835l-0.00201969 -0.00273622 -0.00527953 -0.00706299 -0.0053189 -0.00701181 -0.00537008 -0.007 -0.00543307 -0.00698425 -0.00547638 -0.00694488 -0.00552362 -0.00691339 -0.0055748 -0.0068937 -0.00562205 -0.00685827 -0.00566535 -0.00682677 -0.00572835 -0.00681102 -0.00578346 -0.00679134 -0.0058189 -0.00674016 -0.00587008 -0.00671654 -0.0059252 -0.00668898 -0.00597638 -0.00666142 -0.00602756 -0.00663386 -0.00607087 -0.00659843 -0.00611417 -0.00655906 -0.00617323 -0.00654331 -0.00622835 -0.00650787 -0.00626772 -0.00647244 -0.00632283 -0.00644488 -0.00637008 -0.00641339 -3.93701e-006 -3.93701e-006 -0.00641339 -0.00637008 -0.00305512 -0.003c-0.0220276,-0.0213307 -0.0557913,-0.0201299 -0.0761535,0.00129528 0.0184488,-0.0213071 0.0179252,-0.0554409 -0.0058622,-0.0756772l-0.00109843 -0.000925197 -0.00682677 -0.00566535 -0.00685827 -0.00562205 -0.0068937 -0.0055748 -0.00691339 -0.00552362 -0.00694488 -0.00547638 -0.00697638 -0.00542913 -0.00700787 -0.00537795 -0.00701969 -0.0053189 -0.00705512 -0.00527559 -0.00708268 -0.00522835 -0.0071063 -0.00517717 -0.00712598 -0.00512205 -0.00716142 -0.0050748 -0.00717323 -0.00502362 -0.00720472 -0.00497244 -0.00723228 -0.00492913 -0.00726378 -0.00488189 -0.00727559 -0.00482283 -0.00730315 -0.00477559 -0.00733071 -0.00472835 -0.00734252 -0.00466929 -0.00738583 -0.00463386 -0.0073937 -0.00457087 -0.00741339 -0.00452362 -0.00744882 -0.00448031 -0.00105512 -0.000622047c-0.018937,-0.0113622 -0.0424213,-0.00970866 -0.0599331,0.00355512 -0.00562992,0.00441732 -0.0100945,0.00963386 -0.0134213,0.0153189 0.00452756,-0.00890945 0.00661811,-0.0193386 0.00523228,-0.0305512 -0.00242913,-0.017874 -0.0128622,-0.0330157 -0.0290787,-0.041126l-0.000409449 -0.000204724 -0.00772441 -0.00377165 -0.00774016 -0.00372441 -0.00777165 -0.00367717 -0.00777953 -0.00362205 -0.00779528 -0.0035748 -0.00783465 -0.00353543 -0.00783465 -0.0034685 -0.00783071 -0.00341732 -0.00787795 -0.00338189 -0.0078937 -0.00332677 -0.00789764 -0.00327165 -0.0079252 -0.00322835 -0.0079252 -0.00316929 -0.00794882 -0.00312598 -0.00797244 -0.00307874 -0.00798819 -0.00302756 -0.00798819 -0.0029685 -0.00800787 -0.0029252 -0.0080315 -0.00287402 -0.0080315 -0.00282283 -0.00804331 -0.00277165 -0.00807087 -0.00272835 -0.00808661 -0.00267717 -0.00808661 -0.00262205 -0.00810236 -0.00257087 -0.00731496 -0.00227559c-0.0309094,-0.00956693 -0.0589764,0.00932677 -0.0670906,0.0355 0.00299606,-0.0126417 0.00141339,-0.0266575 -0.00642913,-0.0397283 -0.00776378,-0.0124567 -0.0195079,-0.0210787 -0.0338937,-0.0242953l-0.00819291 -0.00181496 -0.00828346 -0.00177559 -0.0082874 -0.00172441 -0.00829134 -0.00167323 -0.00829528 -0.00162205 -0.00831496 -0.0015748 -0.00830709 -0.00152362 -0.0083189 -0.00147638 -0.00833858 -0.0014252 -0.00833858 -0.00137402 -0.00834252 -0.0013189 -0.00834252 -0.00127559 -0.0083622 -0.00122441 -0.00835827 -0.00117323 -0.00837795 -0.00112598 -0.00836614 -0.00107087 -0.00837402 -0.00102756 -0.00838583 -0.000976378 -0.00838189 -0.00092126 -0.00840157 -0.000877953 -0.00838976 -0.000818898 -0.00839764 -0.000779528 -0.00840551 -0.000724409 -0.00841732 -0.000673228 -0.00840551 -0.000622047 -0.00840551 -0.00057874 -0.00205906 -0.000125984c-0.0232441,-0.00133465 -0.0439803,0.0116654 -0.0529134,0.0331575 -0.00226772,0.0056378 -0.00350787,0.0113661 -0.00383858,0.0170039 -0.000240157,-0.0281378 -0.0230118,-0.0532638 -0.0539685,-0.0529134l-0.0051811 8.26772e-005 -0.00843307 0.000173228 -0.00842126 0.000224409 -0.00842126 0.000275591 -0.00843307 0.000322835 -0.00842913 0.000377953 -0.00841339 0.000425197 -0.00841339 0.000472441 -0.0084252 0.000523622 -0.00840551 0.00057874 -0.00840551 0.000622047 -0.00841732 0.000673228 -0.00840551 0.000724409 -0.00839764 0.000779528 -0.00838976 0.000818898 -0.00840157 0.000877953 -0.00838189 0.00092126 -0.00837402 0.000976378 -0.00838583 0.00102362 -0.00837795 0.0010748 -0.00836614 0.00112598 -0.00835827 0.00117323 -0.00835039 0.00122047 -0.00835433 0.00127559 -0.00835433 0.00132677 -0.00832677 0.00137008 -0.00538189 0.000917323c-0.030248,0.00527953 -0.0490433,0.0336693 -0.0435197,0.0626339 -0.00242913,-0.010626 -0.00820472,-0.0207441 -0.0177087,-0.0287402 -0.0131063,-0.0109921 -0.0305512,-0.0149567 -0.0471417,-0.0108583l-0.00213386 0.000535433 -0.00820472 0.00212598 -0.00819291 0.00216929 -0.00819291 0.00222441 -0.00818504 0.00227559 -0.00815748 0.00232283 -0.00815748 0.00237795 -0.0081378 0.0024252 -0.00812598 0.0024685 -0.00811811 0.00252756 -0.00810236 0.00257087 -0.00809843 0.00262598 -0.0080748 0.00267717 -0.00806299 0.00272047 -0.00805118 0.00277559 -0.00804331 0.00282677 -0.00801969 0.00287402 -0.00800787 0.00292126 -0.008 0.00298031 -0.00797638 0.00301969 -0.00796457 0.0030748 -0.00795669 0.00312598 -0.00793307 0.00317717 -0.00791732 0.00322441 -0.00789764 0.00327165 -0.00788189 0.00332283 -0.00613386 0.00262992c-0.0297205,0.0128465 -0.0388504,0.045437 -0.0279646,0.070626 -0.00151181,-0.00290945 -0.00330709,-0.00573228 -0.00540551,-0.00843701 -0.0162835,-0.0202756 -0.0434921,-0.0261614 -0.0666654,-0.0142795l-0.0023937 0.00126378 -0.00761024 0.00407874 -0.00757874 0.00411811 -0.00757874 0.00417717 -0.00755512 0.00422835 -0.00752756 0.00427559 -0.00751181 0.00433071 -0.00747638 0.00437008 -0.00746457 0.00442126 -0.00744882 0.00448425 -0.00741339 0.00451969 -0.0073937 0.0045748 -0.00737402 0.00462205 -0.00735433 0.00467717 -0.00733071 0.00472835 -0.00730315 0.00477559 -0.00727559 0.00482283 -0.00726378 0.00488189 -0.00723228 0.00492913 -0.00720472 0.00497244 -0.00717323 0.00502362 -0.00716142 0.0050748 -0.00712598 0.00512205 -0.0071063 0.00517717 -0.00708268 0.00522835 -0.00706299 0.00527953 -0.00115354 0.000874016c-0.0243858,0.0184646 -0.0274764,0.0520079 -0.010689,0.0745118 -0.00825197,-0.00936614 -0.0199843,-0.0159843 -0.0344094,-0.0174094 -0.014811,-0.00146457 -0.0293583,0.00318898 -0.0405472,0.0130236l-0.00238189 0.00211024 -0.00666142 0.00597638 -0.00663386 0.00602756 -0.00659843 0.00607087 -0.00655906 0.00611417 -0.00654331 0.00617323 -0.00650787 0.00622835 -0.00647244 0.00626772 -0.00644488 0.00632283 -0.00641339 0.00637008zm1.61575 -0.264976l-0.0477008 0.0954016m0.615618 0.41922c-0.0214921,-0.0350394 -0.072874,-0.0334606 -0.0924331,0.00264961 -0.00886614,0.0170315 -0.00856299,0.0366969 0.00153543,0.0531614l0.00422047 0.00683071 0.00418504 0.0068622 0.00413386 0.00687402 0.00408268 0.00688189 0.00403543 0.00690945 0.004 0.00693701 0.00394488 0.00694488 0.00390157 0.00697244 0.00385433 0.00698819 0.00380709 0.00700394 0.00375984 0.00702756 0.00371654 0.00704724 0.00367717 0.0070748 0.00362598 0.00707874 0.0035748 0.00709449 0.00352756 0.00711417 0.00348819 0.00714173 0.00344094 0.00715748 0.0033937 0.00716535 0.00334252 0.0071811 0.00330315 0.00720472 0.00325591 0.00722441 0.00320866 0.00723622 0.00316142 0.00725197 0.00311811 0.00727165 0.00232677 0.00551181c0.00785039,0.0187047 0.0250039,0.0308701 0.0451299,0.0326102 0.00762598,0.000559055 0.0148543,-0.000472441 0.0214528,-0.00275197 -0.00676378,0.00274409 -0.0131772,0.00697638 -0.0187992,0.0127953 -0.0134528,0.0144134 -0.0180394,0.0344724 -0.0119291,0.0532559l0.000606299 0.00183858 0.00242913 0.00748425 0.00237795 0.00748819 0.00233465 0.00750787 0.0022874 0.00750394 0.00223622 0.00751969 0.00219291 0.00753937 0.00214961 0.00755118 0.00210236 0.00754724 0.00205512 0.0075748 0.00201181 0.00757874 0.00196063 0.00758268 0.00191732 0.00758661 0.00187008 0.0076063 0.00182677 0.00762205 0.00177559 0.00762205 0.00173622 0.0076378 0.00168504 0.0076378 0.0016378 0.00764961 0.00159843 0.00766535 0.00154331 0.00765748 0.00150394 0.00768504 0.00145669 0.00766929 0.00140551 0.00768504 0.0013622 0.00770079 0.00131496 0.00770472 0.00117717 0.00711024c0.00491339,0.0301811 0.0317677,0.0467559 0.0576378,0.0445669 -0.0263189,0.00394882 -0.0472402,0.0274843 -0.0452126,0.056878l0.000610236 0.00764173 0.00057874 0.00777165 0.000527559 0.0077874 0.000488189 0.0077874 0.000440945 0.00776772 0.000389764 0.00779528 0.000346457 0.00779528 0.000299213 0.00779528 0.000259843 0.00779921 0.000204724 0.00777953 0.000161417 0.00779921 0.000114173 0.00780315 7.08661e-005 0.0077874 1.9685e-005 0.00780315 -1.9685e-005 0.00780315 -7.08661e-005 0.0077874 -0.000114173 0.00780315 -0.000161417 0.00779921 -0.000204724 0.00777953 -0.000259843 0.00779921 -0.000299213 0.00779528 -0.000346457 0.00779528 -0.000389764 0.00779528 -0.000440945 0.00776772 -0.000488189 0.0077874 -0.000527559 0.0077874 -0.000185039 0.0024685c-0.00207874,0.0301614 0.0194764,0.0528976 0.0452047,0.0568622 -0.0260827,-0.0018622 -0.0519764,0.0158386 -0.0566732,0.0450197l-0.000637795 0.00419291 -0.00122441 0.0077126 -0.00127559 0.0077126 -0.00131496 0.00770472 -0.0013622 0.00770079 -0.00140551 0.00768504 -0.00145669 0.00766929 -0.00150394 0.00768504 -0.00154331 0.00765748 -0.00159843 0.00766535 -0.0016378 0.00764961 -0.00168504 0.0076378 -0.00173622 0.0076378 -0.00177559 0.00762205 -0.00182677 0.00762205 -0.00187008 0.0076063 -0.00191732 0.00758661 -0.00196063 0.00758268 -0.00201181 0.00757874 -0.00205512 0.0075748 -0.00210236 0.00754724 -0.00214961 0.00755118 -0.00219291 0.00753937 -0.00223622 0.00751969 -0.0022874 0.00750394 -0.00233465 0.00750787 -0.00151181 0.00475984c-0.00583465,0.0179409 -0.00153937,0.0376732 0.0109331,0.0517598 0.00586614,0.00650394 0.0127323,0.0111496 0.0200394,0.0140748 -0.0250945,-0.00819685 -0.0544055,0.0030748 -0.0658976,0.0304528l-0.00106299 0.00261811 -0.00301969 0.00727559 -0.0030748 0.00729134 -0.00311811 0.00727165 -0.00316142 0.00725197 -0.00320866 0.00723622 -0.00325591 0.00722441 -0.00330315 0.00720472 -0.00334252 0.0071811 -0.0033937 0.00716535 -0.00344094 0.00715748 -0.00348819 0.00714173 -0.00352756 0.00711417 -0.0035748 0.00709449 -0.00362598 0.00707874 -0.00367717 0.0070748 -0.00371654 0.00704724 -0.00375984 0.00702756 -0.00380709 0.00700394 -0.00385433 0.00698819 -0.00390157 0.00697244 -0.00394488 0.00694488 -0.004 0.00693701 -0.00403543 0.00690945 -0.00408268 0.00688189 -0.00413386 0.00687402 -0.0016063 0.00263386c-0.0159173,0.0259528 -0.00651969,0.0560827 0.0145354,0.0713386 -0.00834252,-0.00522835 -0.0183898,-0.00823622 -0.0295827,-0.00796457 -0.0168071,0.000622047 -0.0315315,0.00825197 -0.0415827,0.0217835l-0.00446063 0.00612598 -0.0048189 0.0065315 -0.00487008 0.00650394 -0.0049252 0.0065 -0.00496063 0.00646457 -0.00500787 0.00643307 -0.00505118 0.00640945 -0.0051063 0.0063937 -0.00514961 0.00636614 -0.00519685 0.00633858 -0.00524803 0.00632283 -0.00527953 0.00628346 -0.00532677 0.00624803 -0.00538583 0.00623622 -0.00542913 0.0062126 -0.0054685 0.00617717 -0.00551969 0.00615748 -0.00556299 0.00612205 -0.00561417 0.00609449 -0.00566535 0.00607874 -0.00570079 0.00603937 -0.00574803 0.00601181 -0.00580315 0.00599213 -0.00584252 0.00595669 -0.00588976 0.0059252c-0.0334843,0.0334843 -0.00968504,0.0910433 0.0377126,0.0910433 0.0141929,0 0.0276732,-0.00557874 0.0377126,-0.0156181l0.00637008 -0.00641339 0.00632283 -0.00644488 0.00626772 -0.00647244 0.00622835 -0.00650787 0.00617323 -0.00654331 0.00611417 -0.00655906 0.00607087 -0.00659843 0.00602756 -0.00663386 0.00597638 -0.00666142 0.0059252 -0.00668898 0.00587008 -0.00671654 0.0058189 -0.00674016 0.00578346 -0.00679134 0.00572835 -0.00681102 0.00566535 -0.00682677 0.00562205 -0.00685827 0.0055748 -0.0068937 0.00552362 -0.00691339 0.00547638 -0.00694488 0.00543307 -0.00698425 0.00537008 -0.007 0.0053189 -0.00701181 0.00527953 -0.00706299 0.00522835 -0.00708268 0.00446063 -0.00612598c0.0187441,-0.0255906 0.0105236,-0.058622 -0.0119213,-0.0748976 0.0110551,0.00694094 0.0248819,0.00994094 0.0397598,0.00659449 0.014063,-0.00320472 0.026122,-0.0118071 0.0336654,-0.0241063l0.00193701 -0.00317717 0.00448031 -0.00744094 0.00442913 -0.00747244 0.00437402 -0.00748425 0.00432283 -0.00750394 0.00427559 -0.00752756 0.00422441 -0.00754724 0.00417717 -0.00757087 0.00412992 -0.00760236 0.0040748 -0.00761024 0.00402362 -0.00762992 0.0039685 -0.00764173 0.0039252 -0.00766929 0.00388189 -0.00770079 0.00382677 -0.0077126 0.00377165 -0.00772441 0.00372441 -0.00774016 0.00367717 -0.00777165 0.00362598 -0.0077874 0.00357087 -0.00779528 0.00352362 -0.00781496 0.00347638 -0.00783465 0.00342913 -0.00785827 0.00337008 -0.0078622 0.00332677 -0.00788189 0.00327953 -0.00792126 0.00106299 -0.00261811c0.00751575,-0.0184449 0.00431496,-0.038815 -0.0082126,-0.0542323 -0.00611024,-0.00725984 -0.0134606,-0.0124134 -0.0213386,-0.015563 0.026563,0.00866535 0.0576772,-0.00462598 0.0673661,-0.0344055l0.00170866 -0.00537402 0.00252362 -0.00811417 0.00247638 -0.00813386 0.0024252 -0.00814961 0.00237402 -0.00814567 0.00232283 -0.00815748 0.00227559 -0.00818504 0.00222047 -0.0081811 0.00217717 -0.00819291 0.00212598 -0.0082126 0.0020748 -0.00822441 0.00201969 -0.00822835 0.00197638 -0.00823622 0.0019252 -0.00825197 0.00187008 -0.00825197 0.00182677 -0.00826772 0.00177165 -0.00827165 0.00172441 -0.00827953 0.00167717 -0.00830315 0.00162205 -0.00829134 0.0015748 -0.00831496 0.00152362 -0.00832283 0.00147244 -0.00831496 0.0014252 -0.00832677 0.00137008 -0.00833465 0.00132677 -0.00835039 0.000637795 -0.00419291c0.00280709,-0.0187953 -0.00406693,-0.0369921 -0.0186063,-0.0492244 -0.0079252,-0.00653937 -0.0168386,-0.0103346 -0.0258701,-0.0117244 0.0111299,0.00080315 0.0228268,-0.00190945 0.0335827,-0.00902756 0.0135906,-0.00933071 0.0219921,-0.0236142 0.023315,-0.0400787l0.000232283 -0.00311417 0.000574803 -0.00840945 0.000527559 -0.00840945 0.000472441 -0.00843701 0.00042126 -0.00841732 0.000377953 -0.00841732 0.000322835 -0.00841732 0.000275591 -0.00842126 0.000228346 -0.00844882 0.000169291 -0.00842126 0.000129921 -0.0084252 7.08661e-005 -0.00843307 2.75591e-005 -0.0084252 -2.75591e-005 -0.0084252 -7.08661e-005 -0.00843307 -0.000129921 -0.0084252 -0.000169291 -0.00842126 -0.000228346 -0.00844882 -0.000275591 -0.00842126 -0.000322835 -0.00841732 -0.000377953 -0.00841732 -0.00042126 -0.00841732 -0.000472441 -0.00843701 -0.000527559 -0.00840945 -0.000574803 -0.00840945 -0.000625984 -0.00841732 -0.000610236 -0.00764173c-0.00172047,-0.0214016 -0.015689,-0.0393622 -0.0359606,-0.046378 -0.00738976,-0.00246457 -0.0147717,-0.00326772 -0.0218307,-0.00266535 0.0135433,-0.00201181 0.0265354,-0.00926772 0.0356496,-0.0225394 0.0077874,-0.0113425 0.0108465,-0.0250906 0.00866142,-0.0386732l-0.00127165 -0.00773228 -0.0014252 -0.00832677 -0.00147244 -0.00831496 -0.00152362 -0.00832283 -0.0015748 -0.00831496 -0.00162205 -0.00829134 -0.00167717 -0.00830315 -0.00172441 -0.00827953 -0.00177165 -0.00827165 -0.00182677 -0.00826772 -0.00187008 -0.00825197 -0.0019252 -0.00825197 -0.00197638 -0.00823622 -0.00201969 -0.00822835 -0.0020748 -0.00822441 -0.00212598 -0.0082126 -0.00217717 -0.00819291 -0.00222047 -0.0081811 -0.00227559 -0.00818504 -0.00232283 -0.00815748 -0.00237402 -0.00814567 -0.0024252 -0.00814961 -0.00247638 -0.00813386 -0.00252362 -0.00811417 -0.0025748 -0.00810236 -0.00261811 -0.00808268 -0.000606299 -0.00183858c-0.0100748,-0.0298622 -0.041311,-0.043063 -0.0680157,-0.0338386 0.0261378,-0.010622 0.0412638,-0.0412992 0.0292008,-0.0700315l-0.00257874 -0.00610236 -0.00337008 -0.0078622 -0.00342913 -0.00785827 -0.00347638 -0.00783465 -0.00352362 -0.00781496 -0.00357087 -0.00779528 -0.00362598 -0.0077874 -0.00367717 -0.00777165 -0.00372441 -0.00774016 -0.00377165 -0.00772441 -0.00382677 -0.0077126 -0.00388189 -0.00770079 -0.0039252 -0.00766929 -0.0039685 -0.00764173 -0.00402362 -0.00762992 -0.0040748 -0.00761024 -0.00412992 -0.00760236 -0.00417717 -0.00757087 -0.00422441 -0.00754724 -0.00427559 -0.00752756 -0.00432283 -0.00750394 -0.00437402 -0.00748425 -0.00442913 -0.00747244 -0.00448031 -0.00744094 -0.00451575 -0.00740551 -0.00422047 -0.00683071z"/>
  <path class="fil1" d="M3.72678 1.39448c0.0294528,0 0.0533346,0.0238819 0.0533346,0.0533346 0,0.0294528 -0.0238819,0.0533346 -0.0533346,0.0533346l-0.245831 0c-0.0294528,0 -0.0533346,-0.0238819 -0.0533346,-0.0533346l0 -0.245831c0,-0.0294528 0.0238819,-0.0533346 0.0533346,-0.0533346 0.0294528,0 0.0533346,0.0238819 0.0533346,0.0533346l0 0.192496 0.192496 0z"/>
  <path class="fil1" d="M3.10805 5.44729c-0.0294528,0 -0.0533346,-0.0238819 -0.0533346,-0.0533346 0,-0.0294528 0.0238819,-0.0533346 0.0533346,-0.0533346l0.245831 0c0.0294528,0 0.0533346,0.0238819 0.0533346,0.0533346l0 0.245831c0,0.0294528 -0.0238819,0.0533346 -0.0533346,0.0533346 -0.0294528,0 -0.0533346,-0.0238819 -0.0533346,-0.0533346l0 -0.192496 -0.192496 0z"/>
  <path class="fil2" d="M3.16682 1.74975l0 0zm-0.13135 0.108559c-0.00137795,0.00122047 -0.00280709,0.00240157 -0.00427953,0.00353543 -1.5748e-005,1.5748e-005 -3.54331e-005,2.75591e-005 -5.11811e-005,4.33071e-005l0.00433071 -0.00357874zm0.159303 -0.127587c-0.00125591,0.000700787 -0.00252362,0.00136614 -0.00379921,0.00199213 0.00125984,-0.000688976 0.00252756,-0.00135433 0.00379921,-0.00199213zm0.0126614 0.0207795c0.00108661,-0.00258661 0.00232283,-0.00513386 0.00370472,-0.00764173 -0.00112992,0.00256299 -0.00236614,0.00511024 -0.00370472,0.00764173zm-0.124008 0.163358c0.00160236,-0.00232283 0.0033189,-0.00454331 0.00515354,-0.00667717l-0.00515354 0.00667717zm-0.589134 0.762524c0.00156693,-0.00225591 0.00323228,-0.00440945 0.00500394,-0.00647638l-0.00500394 0.00647638zm0.822516 -0.803685l0 0zm-1.69883 1.44391l0 0zm0.669126 -0.180937c0.0485591,-0.0397165 0.0934606,-0.0806299 0.132469,-0.119583 0.0407756,-0.0407205 0.0751102,-0.0792913 0.100461,-0.112102l0.0598661 -0.0774843 0.0984134 -0.127382 0.497295 -0.643657 0.101709 -0.13165 0.0275669 -0.0356772 0.0119094 -0.0154567c0.0290433,-0.0358346 0.0488898,-0.0771575 0.0575394,-0.120197 0.000531496,-0.00264173 0.00101969,-0.00529134 0.00146457,-0.00794488 0.00693307,-0.0412323 0.00359055,-0.0835394 -0.0116339,-0.123906 -0.00787008,-0.0218504 -0.0251614,-0.0400945 -0.0487953,-0.0483307 -0.0415433,-0.0145157 -0.0844961,-0.0167283 -0.125823,-0.00841339 -0.00266929,0.000535433 -0.00533071,0.00111417 -0.00798425,0.00174016 -0.0434646,0.0102126 -0.0847598,0.0319094 -0.120028,0.0628701l-0.0133307 0.0110118 -0.0345197 0.0285157 -0.128394 0.106059 -0.627091 0.518012 -0.12422 0.10261 -0.0681339 0.0562835c-0.0336614,0.0278031 -0.0735827,0.0657008 -0.115583,0.110646 -0.0377992,0.0404449 -0.0772874,0.0865906 -0.115413,0.13622 -0.0489685,0.0637402 -0.0956969,0.13322 -0.133728,0.203728 -0.0761102,0.141098 -0.118988,0.289465 -0.0831142,0.415016 0.00758661,0.026563 0.028752,0.0484567 0.0574724,0.0556339 0.125209,0.031374 0.271591,-0.0157323 0.409811,-0.0954488 0.0701732,-0.0404724 0.139051,-0.0897874 0.201815,-0.141114zm-0.0721732 -0.146976c0.00337402,-0.00349606 0.00703937,-0.00665354 0.0109449,-0.00944882 -0.00361811,0.00314961 -0.00726772,0.00630315 -0.0109449,0.00944882zm-0.222055 -0.233646c-0.00239764,0.00349213 -0.0050748,0.00680315 -0.00802756,0.00989764 0.00267323,-0.0033189 0.00535039,-0.00662205 0.00802756,-0.00989764zm0.299165 -0.28363c-0.00118504,0.00103937 -0.00240551,0.00204724 -0.00369685,0.00305512l0.00369685 -0.00305512z"/>
  <path class="fil1" d="M2.51923 2.79174c-0.0379685,-0.022437 -0.050563,-0.0714094 -0.028126,-0.109378 0.022437,-0.0379685 0.0714094,-0.050563 0.109378,-0.028126l0.751669 0.443189c0.0379685,0.022437 0.050563,0.0714094 0.028126,0.109378 -0.00398425,0.00674409 -0.00880709,0.0126772 -0.0142559,0.0177677 -0.0952165,0.0977677 -0.172961,0.145776 -0.23963,0.166984 -0.0749094,0.0238268 -0.132118,0.0147677 -0.183669,0.0014685 -0.00320079,-0.000814961 -0.00630709,-0.0018189 -0.00930709,-0.00298819l-6.69291e-005 0.000173228 -0.689988 -0.270693c-0.0410748,-0.0160472 -0.0613583,-0.0623622 -0.045311,-0.103437 0.0160472,-0.0410748 0.0623622,-0.0613583 0.103437,-0.045311l0.686681 0.269398c0.0269449,0.00651575 0.0562047,0.0102953 0.0900984,-0.000484252 0.0280157,-0.00891339 0.060815,-0.0269094 0.100551,-0.0590433l-0.659587 -0.388898z"/>
  <path class="fil1" d="M2.30672 2.3696c0.0236417,0.0372756 0.0125866,0.0866693 -0.024689,0.110311 -0.0372756,0.0236417 -0.0866693,0.0125866 -0.110311,-0.024689l-0.409724 -0.645811c-0.0306339,0.0406063 -0.0474921,0.0739606 -0.0555079,0.102323 -0.00969291,0.034315 -0.00506693,0.0633031 0.00225591,0.0898543l0.291681 0.677618c0.0174291,0.0405551 -0.0013189,0.0875709 -0.041874,0.105 -0.0405551,0.0174291 -0.0875709,-0.0013189 -0.105,-0.041874l-0.293028 -0.680744 0.00019685 -8.66142e-005c-0.00127953,-0.00298819 -0.0023937,-0.00608268 -0.00332283,-0.0092874 -0.0150079,-0.0512126 -0.0259685,-0.108173 -0.00465748,-0.183606 0.0188976,-0.0668819 0.0641299,-0.145795 0.158323,-0.243969 0.00511811,-0.00605906 0.0112283,-0.0114528 0.0182795,-0.0159252 0.0372756,-0.0236417 0.0866693,-0.0125866 0.110311,0.024689l0.467067 0.736197z"/>
  <path class="fil1" d="M3.24045 1.85116c-0.0379685,-0.022437 -0.050563,-0.0714094 -0.028126,-0.109378 0.022437,-0.0379685 0.0714094,-0.050563 0.109378,-0.028126l0.374201 0.220634c0.0379685,0.022437 0.050563,0.0714094 0.028126,0.109378 -0.00398425,0.00674409 -0.00880709,0.0126811 -0.0142559,0.0177717 -0.0558937,0.057126 -0.102945,0.0856732 -0.144177,0.0987874 -0.0494961,0.015748 -0.086563,0.00995276 -0.119827,0.00137402 -0.00320079,-0.000814961 -0.00630709,-0.0018189 -0.00930709,-0.00298819l-6.69291e-005 0.000173228 -0.31635 -0.12411c-0.0410748,-0.0160472 -0.0613583,-0.0623622 -0.045311,-0.103437 0.0160472,-0.0410748 0.0623622,-0.0613583 0.103437,-0.045311l0.312583 0.122634c0.00620079,0.00133071 0.0125827,0.00212992 0.0190433,0.00140945l-0.269346 -0.158811z"/>
  <path class="fil1" d="M3.22331 1.61812c0.0236417,0.0372756 0.0125866,0.0866693 -0.024689,0.110311 -0.0372756,0.0236417 -0.0866693,0.0125866 -0.110311,-0.024689l-0.16689 -0.263051c-0.000484252,0.00635827 0.00046063,0.0125236 0.00191732,0.0184685l0.132492 0.307795c0.0174291,0.0405551 -0.0013189,0.0875709 -0.041874,0.105 -0.0405551,0.0174291 -0.0875709,-0.0013189 -0.105,-0.041874l-0.134059 -0.311433 0.00019685 -8.66142e-005c-0.00127953,-0.00298819 -0.0023937,-0.00608268 -0.00332283,-0.0092874 -0.00969291,-0.0330866 -0.0167323,-0.0700197 -0.00267323,-0.119791 0.0116299,-0.0411535 0.0384173,-0.0887244 0.0932008,-0.14624 0.00513386,-0.00609843 0.0112717,-0.0115315 0.0183622,-0.0160276 0.0372756,-0.0236417 0.0866693,-0.0125866 0.110311,0.024689l0.232339 0.366217z"/>
  <path class="fil1" d="M3.36416 1.62164c0.0162047,0.0429646 0.0189488,0.088126 0.0101693,0.13185 -0.00864961,0.0430394 -0.0284961,0.0843622 -0.0575394,0.120197l1.9685e-005 1.5748e-005 -0.79678 1.03129c-0.0809449,0.104768 -0.25352,0.268283 -0.434744,0.372799 -0.13822,0.0797165 -0.284602,0.126823 -0.409811,0.0954488 -0.0287205,-0.00717717 -0.0498858,-0.0290709 -0.0574724,-0.0556339l-2.75591e-005 7.87402e-006c-0.0358465,-0.125559 0.0070315,-0.273925 0.0831417,-0.415024 0.100543,-0.186398 0.261866,-0.365634 0.364724,-0.450594l0.995689 -0.822492c0.0352677,-0.0309606 0.076563,-0.0526575 0.120028,-0.0628701 0.0437598,-0.0102913 0.0895827,-0.00877953 0.133807,0.00667323 0.0236339,0.00823622 0.0409252,0.0264803 0.0487953,0.0483307zm-0.146083 0.100598l7.87402e-006 -4.33071e-005 -0.000275591 6.29921e-005c-0.0176693,0.00415354 -0.0352165,0.0136535 -0.0509685,0.0275197l-1.9685e-005 -2.3622e-005c-0.000610236,0.000535433 -0.00122441,0.00106693 -0.00185433,0.00158661l-0.997252 0.823783c-0.0917638,0.0757953 -0.235866,0.236039 -0.325976,0.403091 -0.0467953,0.086752 -0.0782559,0.173311 -0.0770591,0.245378 0.0714331,-0.00124409 0.156465,-0.0350394 0.241228,-0.0839252 0.162091,-0.0934843 0.315937,-0.239071 0.38787,-0.332177l0.79678 -1.03129 4.72441e-005 3.54331e-005c0.000496063,-0.000637795 0.000996063,-0.00127953 0.00151575,-0.00190945 0.0133976,-0.0162598 0.0223622,-0.034189 0.0259567,-0.0520866z"/>
  <path class="fil2" d="M2.92333 1.45916l0.0903425 0.209874 0.0345197 -0.0285157 -0.12678 -0.199827c-0.000484252,0.00635827 0.00046063,0.0125236 0.00191732,0.0184685z"/>
  <path class="fil2" d="M3.5098 2.00997l-0.204921 -0.120827 -0.0275669 0.0356772 0.213445 0.0837402c0.00620079,0.00133071 0.0125827,0.00212992 0.0190433,0.00140945z"/>
  <path class="fil2" d="M3.17881 3.18064l-0.598921 -0.35313 -0.0598661 0.0774843c-8.66142e-005,0.000110236 -0.000173228,0.000224409 -0.000259843,0.000334646 -0.0278622,0.0360197 -0.062622,0.0743031 -0.100201,0.111768l0.568598 0.223071c0.0269449,0.00651575 0.0562047,0.0102953 0.0900984,-0.000484252 0.0280157,-0.00891339 0.060815,-0.0269094 0.100551,-0.0590433z"/>
  <path class="fil2" d="M2.06584 2.452l0.0681339 -0.0562835 -0.371972 -0.586303c-0.0306339,0.0406063 -0.0474921,0.0739606 -0.0555079,0.102323 -0.00969291,0.034315 -0.00506693,0.0633031 0.00225591,0.0898543l0.241398 0.560799c0.0387362,-0.0415276 0.0779331,-0.079185 0.115543,-0.110264 4.72441e-005,-4.33071e-005 9.84252e-005,-8.26772e-005 0.000149606,-0.000125984z"/>
  <g id="_512203552">
   <path id="_512204176" class="fil1" d="M4.32836 4.05466c0.0379685,0.022437 0.050563,0.0714094 0.028126,0.109378 -0.022437,0.0379685 -0.0714094,0.050563 -0.109378,0.028126l-0.751669 -0.443189c-0.0379685,-0.022437 -0.050563,-0.0714094 -0.028126,-0.109378 0.00398425,-0.00674409 0.00880709,-0.0126772 0.0142559,-0.0177677 0.0952165,-0.0977677 0.172961,-0.145776 0.23963,-0.166984 0.0749094,-0.0238268 0.132118,-0.0147677 0.183669,-0.0014685 0.00320079,0.000814961 0.00630709,0.0018189 0.00930709,0.00298819l6.69291e-005 -0.000173228 0.689988 0.270693c0.0410748,0.0160472 0.0613583,0.0623622 0.045311,0.103437 -0.0160472,0.0410748 -0.0623622,0.0613583 -0.103437,0.045311l-0.686681 -0.269398c-0.0269449,-0.00651575 -0.0562047,-0.0102953 -0.0900984,0.000484252 -0.0280157,0.00891339 -0.060815,0.0269094 -0.100551,0.0590433l0.659587 0.388898z"/>
   <path id="_512204008" class="fil1" d="M4.54087 4.4768c-0.0236417,-0.0372756 -0.0125866,-0.0866693 0.024689,-0.110311 0.0372756,-0.0236417 0.0866693,-0.0125866 0.110311,0.024689l0.409724 0.645811c0.0306339,-0.0406063 0.0474921,-0.0739606 0.0555079,-0.102323 0.00969291,-0.034315 0.00506693,-0.0633031 -0.00225591,-0.0898543l-0.291681 -0.677618c-0.0174291,-0.0405551 0.0013189,-0.0875709 0.041874,-0.105 0.0405551,-0.0174291 0.0875709,0.0013189 0.105,0.041874l0.293028 0.680744 -0.00019685 8.66142e-005c0.00127953,0.00298819 0.0023937,0.00608268 0.00332283,0.0092874 0.0150079,0.0512126 0.0259685,0.108173 0.00465748,0.183606 -0.0188976,0.0668819 -0.0641299,0.145795 -0.158323,0.243969 -0.00511811,0.00605906 -0.0112283,0.0114528 -0.0182795,0.0159252 -0.0372756,0.0236417 -0.0866693,0.0125866 -0.110311,-0.024689l-0.467067 -0.736197z"/>
   <path id="_512203696" class="fil1" d="M3.60714 4.99524c0.0379685,0.022437 0.050563,0.0714094 0.028126,0.109378 -0.022437,0.0379685 -0.0714094,0.050563 -0.109378,0.028126l-0.374201 -0.220634c-0.0379685,-0.022437 -0.050563,-0.0714094 -0.028126,-0.109378 0.00398425,-0.00674409 0.00880709,-0.0126811 0.0142559,-0.0177717 0.0558937,-0.057126 0.102945,-0.0856732 0.144177,-0.0987874 0.0494961,-0.015748 0.086563,-0.00995276 0.119827,-0.00137402 0.00320079,0.000814961 0.00630709,0.0018189 0.00930709,0.00298819l6.69291e-005 -0.000173228 0.31635 0.12411c0.0410748,0.0160472 0.0613583,0.0623622 0.045311,0.103437 -0.0160472,0.0410748 -0.0623622,0.0613583 -0.103437,0.045311l-0.312583 -0.122634c-0.00620079,-0.00133071 -0.0125827,-0.00212992 -0.0190433,-0.00140945l0.269346 0.158811z"/>
   <path id="_512203384" class="fil1" d="M3.62428 5.22828c-0.0236417,-0.0372756 -0.0125866,-0.0866693 0.024689,-0.110311 0.0372756,-0.0236417 0.0866693,-0.0125866 0.110311,0.024689l0.16689 0.263051c0.000484252,-0.00635827 -0.00046063,-0.0125236 -0.00191732,-0.0184685l-0.132492 -0.307795c-0.0174291,-0.0405551 0.0013189,-0.0875709 0.041874,-0.105 0.0405551,-0.0174291 0.0875709,0.0013189 0.105,0.041874l0.134059 0.311433 -0.00019685 8.66142e-005c0.00127953,0.00298819 0.0023937,0.00608268 0.00332283,0.0092874 0.00969291,0.0330866 0.0167323,0.0700197 0.00267323,0.119791 -0.0116299,0.0411535 -0.0384173,0.0887244 -0.0932008,0.14624 -0.00513386,0.00609843 -0.0112717,0.0115315 -0.0183622,0.0160276 -0.0372756,0.0236417 -0.0866693,0.0125866 -0.110311,-0.024689l-0.232339 -0.366217z"/>
   <path id="_512203360" class="fil1" d="M3.48343 5.22476c-0.0162047,-0.0429646 -0.0189488,-0.088126 -0.0101693,-0.13185 0.00864961,-0.0430394 0.0284961,-0.0843622 0.0575394,-0.120197l-1.9685e-005 -1.5748e-005 0.79678 -1.03129c0.0809449,-0.104768 0.25352,-0.268283 0.434744,-0.372799 0.13822,-0.0797165 0.284602,-0.126823 0.409811,-0.0954488 0.0287205,0.00717717 0.0498858,0.0290709 0.0574724,0.0556339l2.75591e-005 -7.87402e-006c0.0358465,0.125559 -0.0070315,0.273925 -0.0831417,0.415024 -0.100543,0.186398 -0.261866,0.365634 -0.364724,0.450594l-0.995689 0.822492c-0.0352677,0.0309606 -0.076563,0.0526575 -0.120028,0.0628701 -0.0437598,0.0102913 -0.0895827,0.00877953 -0.133807,-0.00667323 -0.0236339,-0.00823622 -0.0409252,-0.0264803 -0.0487953,-0.0483307zm0.146083 -0.100598l-7.87402e-006 4.33071e-005 0.000275591 -6.29921e-005c0.0176693,-0.00415354 0.0352165,-0.0136535 0.0509685,-0.0275197l1.9685e-005 2.3622e-005c0.000610236,-0.000535433 0.00122441,-0.00106693 0.00185433,-0.00158661l0.997252 -0.823783c0.0917638,-0.0757953 0.235866,-0.236039 0.325976,-0.403091 0.0467953,-0.086752 0.0782559,-0.173311 0.0770591,-0.245378 -0.0714331,0.00124409 -0.156465,0.0350394 -0.241228,0.0839252 -0.162091,0.0934843 -0.315937,0.239071 -0.38787,0.332177l-0.79678 1.03129 -4.72441e-005 -3.54331e-005c-0.000496063,0.000637795 -0.000996063,0.00127953 -0.00151575,0.00190945 -0.0133976,0.0162598 -0.0223622,0.034189 -0.0259567,0.0520866z"/>
  </g>
 </g>
 <rect class="fil3" width="6.82666" height="6.82666"/>
</svg>
